<svg id="App-Store" xmlns="http://www.w3.org/2000/svg" width="295" height="87" viewBox="0 0 295 87">
  <path id="Path_13441" data-name="Path 13441" d="M284.5,87H10.334A10.333,10.333,0,0,1,0,76.706V10.279A10.319,10.319,0,0,1,10.334,0H284.5A10.46,10.46,0,0,1,295,10.279V76.706A10.475,10.475,0,0,1,284.5,87Z" fill="#a6a6a6"/>
  <path id="Path_13442" data-name="Path 13442" d="M291.83,75.646a8.349,8.349,0,0,1-8.378,8.328H9.279A8.36,8.36,0,0,1,.89,75.646V9.229A8.37,8.37,0,0,1,9.279.89H283.45a8.358,8.358,0,0,1,8.378,8.339l0,66.416Z" transform="translate(1.055 1.055)"/>
  <g id="Group_8720" data-name="Group 8720" transform="translate(27.953 13.41)">
    <g id="Group_8719" data-name="Group 8719">
      <path id="Path_13443" data-name="Path 13443" d="M50.674,28.57c-.063-7.043,5.767-10.469,6.033-10.629A12.974,12.974,0,0,0,46.49,12.417c-4.3-.452-8.468,2.572-10.657,2.572-2.233,0-5.6-2.528-9.239-2.454a13.6,13.6,0,0,0-11.45,6.984c-4.952,8.572-1.259,21.17,3.485,28.1C21,51.012,23.775,54.8,27.4,54.668c3.551-.146,4.877-2.264,9.162-2.264,4.246,0,5.491,2.264,9.193,2.179,3.811-.061,6.21-3.409,8.5-6.833a28.041,28.041,0,0,0,3.887-7.917A12.245,12.245,0,0,1,50.674,28.57Z" transform="translate(-12.792 1.077)" fill="#fff"/>
      <path id="Path_13444" data-name="Path 13444" d="M31.457,15.152a12.468,12.468,0,0,0,2.854-8.935A12.7,12.7,0,0,0,26.1,10.465c-1.761,2.058-3.335,5.432-2.928,8.605C26.276,19.3,29.464,17.5,31.457,15.152Z" transform="translate(-0.567 -6.217)" fill="#fff"/>
    </g>
  </g>
  <g id="Group_8721" data-name="Group 8721" transform="translate(92.674 38.928)">
    <path id="Path_13445" data-name="Path 13445" d="M66.961,47.276H62L59.28,38.735H49.831l-2.589,8.542H42.41L51.771,18.2h5.782Zm-8.5-12.126L56,27.557q-.39-1.164-1.466-5.478h-.087q-.429,1.855-1.381,5.478l-2.415,7.594Z" transform="translate(-42.41 -17.77)" fill="#fff"/>
    <path id="Path_13446" data-name="Path 13446" d="M75.614,32.368q0,5.349-2.891,8.454a8.453,8.453,0,0,1-6.429,2.762q-4.143,0-5.955-2.976h-.087V51.655H55.594V29.044q0-3.363-.173-6.9h4.1l.26,3.324h.087a8.289,8.289,0,0,1,13.266-.822A11.553,11.553,0,0,1,75.614,32.368Zm-4.746.17a8.633,8.633,0,0,0-1.381-5.048,4.77,4.77,0,0,0-4.056-2.072A4.845,4.845,0,0,0,62.3,26.562a5.3,5.3,0,0,0-1.833,3,6.1,6.1,0,0,0-.216,1.42v3.5a5.6,5.6,0,0,0,1.4,3.863A4.65,4.65,0,0,0,65.3,39.918a4.77,4.77,0,0,0,4.1-2.028A8.925,8.925,0,0,0,70.868,32.539Z" transform="translate(-26.99 -13.604)" fill="#fff"/>
    <path id="Path_13447" data-name="Path 13447" d="M86.65,32.368q0,5.349-2.893,8.454a8.445,8.445,0,0,1-6.427,2.762q-4.143,0-5.952-2.976H71.29V51.655H66.632V29.044q0-3.363-.173-6.9h4.1l.26,3.324H70.9a8.292,8.292,0,0,1,13.268-.822A11.585,11.585,0,0,1,86.65,32.368Zm-4.746.17a8.633,8.633,0,0,0-1.383-5.048,4.763,4.763,0,0,0-4.054-2.072,4.85,4.85,0,0,0-3.129,1.143,5.3,5.3,0,0,0-1.831,3,6.219,6.219,0,0,0-.216,1.42v3.5a5.62,5.62,0,0,0,1.4,3.863,4.66,4.66,0,0,0,3.649,1.576,4.77,4.77,0,0,0,4.1-2.028A8.925,8.925,0,0,0,81.9,32.539Z" transform="translate(-13.907 -13.604)" fill="#fff"/>
    <path id="Path_13448" data-name="Path 13448" d="M97.824,39.352a7.75,7.75,0,0,1-2.583,6.04Q92.4,47.939,87.32,47.938a13.866,13.866,0,0,1-7.537-1.812l1.079-3.883A12.771,12.771,0,0,0,87.6,44.1a6.367,6.367,0,0,0,4.1-1.189,3.882,3.882,0,0,0,1.464-3.177,4.05,4.05,0,0,0-1.208-2.981,11.233,11.233,0,0,0-4.012-2.249q-7.637-2.848-7.635-8.339a7.379,7.379,0,0,1,2.677-5.876A10.553,10.553,0,0,1,90.1,18a14.115,14.115,0,0,1,6.6,1.381l-1.165,3.8a11.45,11.45,0,0,0-5.566-1.337,5.633,5.633,0,0,0-3.837,1.208,3.453,3.453,0,0,0-1.165,2.633,3.554,3.554,0,0,0,1.335,2.847,15.09,15.09,0,0,0,4.231,2.244,14.353,14.353,0,0,1,5.522,3.536A7.387,7.387,0,0,1,97.824,39.352Z" transform="translate(1.884 -18.001)" fill="#fff"/>
    <path id="Path_13449" data-name="Path 13449" d="M102.014,28.238H96.879V38.419q0,3.884,2.718,3.883a8.286,8.286,0,0,0,2.069-.216l.129,3.538a10.555,10.555,0,0,1-3.623.516,5.59,5.59,0,0,1-4.316-1.683Q92.307,42.772,92.3,38.8V28.234H89.244v-3.5H92.3V20.9l4.576-1.381v5.22h5.135v3.5Z" transform="translate(13.097 -16.204)" fill="#fff"/>
    <path id="Path_13450" data-name="Path 13450" d="M116.831,32.452a11.5,11.5,0,0,1-2.762,7.939,9.861,9.861,0,0,1-7.683,3.193,9.377,9.377,0,0,1-7.353-3.061,11.15,11.15,0,0,1-2.74-7.722,11.39,11.39,0,0,1,2.825-7.98,9.778,9.778,0,0,1,7.613-3.107,9.576,9.576,0,0,1,7.421,3.064A11.023,11.023,0,0,1,116.831,32.452ZM112,32.6a9.432,9.432,0,0,0-1.25-4.976,4.6,4.6,0,0,0-4.182-2.509,4.672,4.672,0,0,0-4.272,2.509,9.613,9.613,0,0,0-1.25,5.063,9.418,9.418,0,0,0,1.25,4.973,4.762,4.762,0,0,0,8.413-.044A9.466,9.466,0,0,0,112,32.6Z" transform="translate(21.45 -13.603)" fill="#fff"/>
    <path id="Path_13451" data-name="Path 13451" d="M118.706,26.239a8.09,8.09,0,0,0-1.468-.129,4.4,4.4,0,0,0-3.8,1.857,6.981,6.981,0,0,0-1.165,4.141v11h-4.657l.044-14.365q0-3.625-.175-6.6h4.058l.17,4.012h.129a7.171,7.171,0,0,1,2.329-3.321,5.633,5.633,0,0,1,3.367-1.123,7.48,7.48,0,0,1,1.165.085v4.442Z" transform="translate(34.718 -13.604)" fill="#fff"/>
    <path id="Path_13452" data-name="Path 13452" d="M132.263,31.655a10.927,10.927,0,0,1-.17,2.113H118.116a6.084,6.084,0,0,0,2.028,4.748,6.923,6.923,0,0,0,4.571,1.466,15.458,15.458,0,0,0,5.655-.992l.73,3.234a17.484,17.484,0,0,1-7.03,1.3,10.184,10.184,0,0,1-7.661-2.869,10.6,10.6,0,0,1-2.782-7.7,12.013,12.013,0,0,1,2.592-7.9,8.928,8.928,0,0,1,7.331-3.363,7.814,7.814,0,0,1,6.864,3.363A11.341,11.341,0,0,1,132.263,31.655Zm-4.442-1.208a6.329,6.329,0,0,0-.9-3.582,4.07,4.07,0,0,0-3.713-1.943,4.42,4.42,0,0,0-3.708,1.9,6.952,6.952,0,0,0-1.379,3.623h9.7Z" transform="translate(41.997 -13.625)" fill="#fff"/>
  </g>
  <g id="Group_8723" data-name="Group 8723" transform="translate(95.44 14.245)">
    <g id="Group_8722" data-name="Group 8722">
      <path id="Path_13453" data-name="Path 13453" d="M55.419,13.758a7.174,7.174,0,0,1-2.312,5.808,9.2,9.2,0,0,1-6.081,1.8,28.2,28.2,0,0,1-3.35-.17V7.143a24.72,24.72,0,0,1,3.944-.3,8.5,8.5,0,0,1,5.66,1.632A6.6,6.6,0,0,1,55.419,13.758ZM53,13.821A5.223,5.223,0,0,0,51.68,9.984a5.22,5.22,0,0,0-3.87-1.335,9.692,9.692,0,0,0-1.844.149V19.481a12.091,12.091,0,0,0,1.547.063,5.417,5.417,0,0,0,4.058-1.462A5.854,5.854,0,0,0,53,13.821Z" transform="translate(-43.676 -6.212)" fill="#fff"/>
      <path id="Path_13454" data-name="Path 13454" d="M60.381,13.9a5.65,5.65,0,0,1-1.357,3.9,4.843,4.843,0,0,1-3.774,1.569,4.6,4.6,0,0,1-3.614-1.506,5.483,5.483,0,0,1-1.344-3.793,5.6,5.6,0,0,1,1.388-3.92,4.813,4.813,0,0,1,3.741-1.525,4.711,4.711,0,0,1,3.647,1.5A5.439,5.439,0,0,1,60.381,13.9Zm-2.375.074a4.659,4.659,0,0,0-.614-2.445,2.262,2.262,0,0,0-2.054-1.232,2.3,2.3,0,0,0-2.1,1.232,4.721,4.721,0,0,0-.614,2.487,4.659,4.659,0,0,0,.614,2.445,2.311,2.311,0,0,0,2.078,1.232,2.285,2.285,0,0,0,2.054-1.254A4.63,4.63,0,0,0,58.006,13.972Z" transform="translate(-35.835 -4.106)" fill="#fff"/>
      <path id="Path_13455" data-name="Path 13455" d="M70.86,8.719l-3.223,10.3h-2.1L64.2,14.547a33.477,33.477,0,0,1-.828-3.328h-.042a24.364,24.364,0,0,1-.828,3.328L61.088,19.02H58.966l-3.031-10.3h2.353l1.165,4.9q.423,1.737.7,3.306h.042q.256-1.291.85-3.284l1.462-4.917h1.866l1.4,4.812q.508,1.76.826,3.391h.063a32.4,32.4,0,0,1,.7-3.391l1.25-4.812H70.86Z" transform="translate(-29.147 -3.992)" fill="#fff"/>
      <path id="Path_13456" data-name="Path 13456" d="M73.1,19.137h-2.29v-5.9q0-2.727-2.076-2.727a2.067,2.067,0,0,0-1.654.75,2.66,2.66,0,0,0-.636,1.766v6.11h-2.29V11.78q0-1.357-.083-2.948h2.013l.107,1.61h.063A3.309,3.309,0,0,1,67.436,9.2a3.871,3.871,0,0,1,2.076-.579,3.287,3.287,0,0,1,2.4.933A4.534,4.534,0,0,1,73.1,12.966Z" transform="translate(-19.51 -4.11)" fill="#fff"/>
      <path id="Path_13457" data-name="Path 13457" d="M72.329,21.584H70.041V6.556h2.288Z" transform="translate(-12.429 -6.556)" fill="#fff"/>
      <path id="Path_13458" data-name="Path 13458" d="M82.73,13.9a5.65,5.65,0,0,1-1.357,3.9A4.846,4.846,0,0,1,77.6,19.368a4.6,4.6,0,0,1-3.614-1.506,5.483,5.483,0,0,1-1.344-3.793,5.6,5.6,0,0,1,1.388-3.92,4.811,4.811,0,0,1,3.739-1.525,4.716,4.716,0,0,1,3.649,1.5A5.439,5.439,0,0,1,82.73,13.9Zm-2.377.074a4.659,4.659,0,0,0-.614-2.445,2.258,2.258,0,0,0-2.052-1.232,2.293,2.293,0,0,0-2.1,1.232,4.721,4.721,0,0,0-.614,2.487,4.659,4.659,0,0,0,.614,2.445,2.311,2.311,0,0,0,2.078,1.232,2.282,2.282,0,0,0,2.052-1.254A4.61,4.61,0,0,0,80.353,13.972Z" transform="translate(-9.347 -4.106)" fill="#fff"/>
      <path id="Path_13459" data-name="Path 13459" d="M86.917,19.134H84.86l-.17-1.187h-.063a3.527,3.527,0,0,1-3.009,1.42,3.105,3.105,0,0,1-2.351-.933,2.926,2.926,0,0,1-.806-2.1,3.2,3.2,0,0,1,1.58-2.882,8.2,8.2,0,0,1,4.442-.975v-.192q0-2.036-2.139-2.034a4.791,4.791,0,0,0-2.686.763l-.465-1.5a6.606,6.606,0,0,1,3.533-.889q4.038,0,4.043,4.261v3.793A16.089,16.089,0,0,0,86.917,19.134Zm-2.377-3.54V14.005q-3.789-.066-3.789,2.076a1.552,1.552,0,0,0,.439,1.208,1.6,1.6,0,0,0,1.119.4,2.313,2.313,0,0,0,1.4-.476,1.955,1.955,0,0,0,.83-1.621Z" transform="translate(-2.451 -4.106)" fill="#fff"/>
      <path id="Path_13460" data-name="Path 13460" d="M93.618,21.584H91.586l-.107-1.654h-.063a3.424,3.424,0,0,1-3.308,1.888,3.877,3.877,0,0,1-3.094-1.462,5.7,5.7,0,0,1-1.228-3.793,5.972,5.972,0,0,1,1.335-4.049A4.105,4.105,0,0,1,88.3,11.071a3.087,3.087,0,0,1,2.9,1.4h.044V6.556h2.292V18.808Q93.537,20.313,93.618,21.584Zm-2.373-4.344V15.522a3.37,3.37,0,0,0-.063-.721,2.608,2.608,0,0,0-.828-1.388,2.251,2.251,0,0,0-1.532-.562,2.35,2.35,0,0,0-2.015,1.018,4.364,4.364,0,0,0-.734,2.607,4.068,4.068,0,0,0,.7,2.48,2.357,2.357,0,0,0,2,1.016,2.206,2.206,0,0,0,1.809-.848A2.823,2.823,0,0,0,91.245,17.239Z" transform="translate(3.861 -6.556)" fill="#fff"/>
      <path id="Path_13461" data-name="Path 13461" d="M102.72,13.9a5.65,5.65,0,0,1-1.357,3.9,4.84,4.84,0,0,1-3.774,1.569,4.61,4.61,0,0,1-3.614-1.506,5.483,5.483,0,0,1-1.344-3.793,5.6,5.6,0,0,1,1.388-3.92,4.814,4.814,0,0,1,3.743-1.525,4.706,4.706,0,0,1,3.645,1.5A5.439,5.439,0,0,1,102.72,13.9Zm-2.373.074a4.659,4.659,0,0,0-.614-2.445,2.265,2.265,0,0,0-2.056-1.232,2.3,2.3,0,0,0-2.1,1.232,4.721,4.721,0,0,0-.614,2.487,4.659,4.659,0,0,0,.614,2.445,2.34,2.34,0,0,0,4.134-.022A4.649,4.649,0,0,0,100.347,13.972Z" transform="translate(14.345 -4.106)" fill="#fff"/>
      <path id="Path_13462" data-name="Path 13462" d="M107.779,19.137h-2.288v-5.9q0-2.727-2.078-2.727a2.059,2.059,0,0,0-1.652.75,2.648,2.648,0,0,0-.636,1.766v6.11H98.833V11.78q0-1.357-.081-2.948h2.01l.107,1.61h.063A3.342,3.342,0,0,1,102.119,9.2,3.878,3.878,0,0,1,104.2,8.62a3.286,3.286,0,0,1,2.395.933,4.525,4.525,0,0,1,1.187,3.413Z" transform="translate(21.599 -4.11)" fill="#fff"/>
      <path id="Path_13463" data-name="Path 13463" d="M113.339,11.826h-2.522v5c0,1.272.448,1.908,1.335,1.908a4.033,4.033,0,0,0,1.02-.107l.059,1.737a5.145,5.145,0,0,1-1.779.256,2.738,2.738,0,0,1-2.117-.826,4.04,4.04,0,0,1-.765-2.777V11.826h-1.506V10.11h1.506V8.222l2.244-.677v2.563h2.522v1.718Z" transform="translate(31.452 -5.384)" fill="#fff"/>
      <path id="Path_13464" data-name="Path 13464" d="M120.336,21.584h-2.292V15.727q0-2.77-2.074-2.771a2.186,2.186,0,0,0-2.185,1.606,2.878,2.878,0,0,0-.107.824v6.195H111.39V6.556h2.288v6.208h.044a3.462,3.462,0,0,1,3.094-1.694,3.191,3.191,0,0,1,2.356.933,4.691,4.691,0,0,1,1.165,3.455v6.125Z" transform="translate(36.578 -6.556)" fill="#fff"/>
      <path id="Path_13465" data-name="Path 13465" d="M126.174,13.507a5.528,5.528,0,0,1-.085,1.038h-6.868a3,3,0,0,0,.994,2.332,3.411,3.411,0,0,0,2.249.721,7.587,7.587,0,0,0,2.777-.487L125.6,18.7a8.625,8.625,0,0,1-3.457.636,4.993,4.993,0,0,1-3.761-1.409,5.192,5.192,0,0,1-1.366-3.783,5.9,5.9,0,0,1,1.272-3.879,4.38,4.38,0,0,1,3.6-1.652,3.831,3.831,0,0,1,3.367,1.652A5.5,5.5,0,0,1,126.174,13.507Zm-2.185-.592a3.083,3.083,0,0,0-.444-1.759,2,2,0,0,0-1.822-.955,2.174,2.174,0,0,0-1.822.933,3.467,3.467,0,0,0-.68,1.781h4.768Z" transform="translate(43.245 -4.117)" fill="#fff"/>
    </g>
  </g>
</svg>
