<svg id="arrow-back-round-24px" xmlns="http://www.w3.org/2000/svg" width="12" height="12" viewBox="0 0 12 12">
  <path id="Path_6815" data-name="Path 6815" d="M0,0H12V12H0Z" transform="translate(0)" fill="none"/>
  <path id="Path_6816" data-name="Path 6816" d="M15.647,9.621h-8.6L10.8,5.762a.812.812,0,0,0,0-1.123.753.753,0,0,0-1.086,0L4.643,9.85a.8.8,0,0,0,0,1.115l5.075,5.211a.753.753,0,0,0,1.086,0,.8.8,0,0,0,0-1.115L7.045,11.2h8.6a.791.791,0,0,0,0-1.582Z" transform="translate(-4.418 -4.407)" fill="#fff"/>
</svg>
