<svg xmlns="http://www.w3.org/2000/svg" width="32" height="32" viewBox="0 0 32 32">
  <path id="face" d="M30.3,7.665A15.5,15.5,0,0,0,19,3,15.487,15.487,0,0,0,7.67,7.667,15.49,15.49,0,0,0,3,19,15.51,15.51,0,0,0,7.665,30.3,15.429,15.429,0,0,0,19,35a15.46,15.46,0,0,0,11.3-4.7A15.464,15.464,0,0,0,35,19,15.438,15.438,0,0,0,30.3,7.665Zm-2.51,20.123a11.793,11.793,0,0,1-7.008,3.529V22.556h3.556V19H20.778V16.511a1.068,1.068,0,0,1,1.068-1.067h2.487V11.889H21.85a4.263,4.263,0,0,0-3.3,1.461,5.12,5.12,0,0,0-1.326,3.57V19H13.667v3.556h3.556V31.32a11.731,11.731,0,0,1-7.035-3.527A11.925,11.925,0,0,1,6.556,19a11.884,11.884,0,0,1,3.63-8.818A11.881,11.881,0,0,1,19,6.556a11.916,11.916,0,0,1,8.791,3.632A11.848,11.848,0,0,1,31.444,19a11.879,11.879,0,0,1-3.659,8.788Z" transform="translate(-3 -3)" fill="#4c4c72"/>
</svg>
