<svg id="Group_8815" data-name="Group 8815" xmlns="http://www.w3.org/2000/svg" width="236" height="178" viewBox="0 0 236 178">
  <path id="Path_13475" data-name="Path 13475" d="M707.417,287.825c5.075-13.643,17.063-25.432,31.552-26.834a67.067,67.067,0,0,0-10.6,44.809c.741,6.06,2.2,12.722-1.07,17.88-2.032,3.209-5.614,5.185-9.307,6.076a44.52,44.52,0,0,1-11.338.748l-.85.42C703.134,316.614,702.343,301.468,707.417,287.825Z" transform="translate(-549.316 -236.592)" fill="#f2f5f7"/>
  <path id="Path_13476" data-name="Path 13476" d="M742.616,260.69a57.324,57.324,0,0,0-21.3,28.113,24.687,24.687,0,0,0-1.506,7.586,14.156,14.156,0,0,0,1.915,7.2c1.143,2.062,2.551,4.04,3.173,6.344a8.669,8.669,0,0,1-1.218,6.984,22.524,22.524,0,0,1-6.571,6.1c-2.743,1.89-5.622,3.809-7.3,6.777-.2.36-.75.023-.547-.336,2.92-5.165,9.048-7.041,12.8-11.428a8.78,8.78,0,0,0,2.351-7.36c-.473-2.384-1.923-4.424-3.1-6.5a15.108,15.108,0,0,1-2.134-6.972,22.817,22.817,0,0,1,1.209-7.616,55.616,55.616,0,0,1,7.844-15.511,58.342,58.342,0,0,1,14.08-13.944c.338-.236.638.332.3.566Z" transform="translate(-552.895 -235.994)" fill="#fff"/>
  <path id="Path_13477" data-name="Path 13477" d="M737.937,311.734a8.6,8.6,0,0,1-4.3-10.275c.127-.393.743-.215.616.179a7.963,7.963,0,0,0,4.016,9.549c.369.185.031.731-.336.547Z" transform="translate(-568.419 -263.553)" fill="#fff"/>
  <path id="Path_13478" data-name="Path 13478" d="M742.267,366.644a16.576,16.576,0,0,0,9.4-7.586c.2-.359.751-.022.546.336a17.242,17.242,0,0,1-9.8,7.874C742.021,367.391,741.874,366.767,742.267,366.644Z" transform="translate(-574.136 -301.357)" fill="#fff"/>
  <path id="Path_13479" data-name="Path 13479" d="M774.524,286.417a4.868,4.868,0,0,0,4.543.834c.393-.128.539.5.149.624a5.456,5.456,0,0,1-5.028-.912.332.332,0,0,1-.105-.441.322.322,0,0,1,.441-.105Z" transform="translate(-594.884 -253.032)" fill="#fff"/>
  <path id="Path_13480" data-name="Path 13480" d="M776.856,351.074c-.243.087-.486.174-.731.267a64.1,64.1,0,0,0-9.451,4.34c-.236.128-.474.261-.705.395a67.587,67.587,0,0,0-18.911,16.173,65.61,65.61,0,0,0-5.641,8.224c-2.3,3.978-4.487,8.475-7.872,11.374a11.239,11.239,0,0,1-1.1.852l-23.094-5.465c-.046-.039-.094-.072-.141-.111l-.932-.176c.076-.155.158-.313.233-.468.043-.09.092-.178.136-.268.03-.06.062-.119.086-.174.01-.02.021-.04.029-.054.024-.055.053-.1.076-.155q.682-1.332,1.386-2.66c0-.005,0-.005.008-.009a96.525,96.525,0,0,1,12.813-18.879c.152-.17.3-.345.466-.513a62.629,62.629,0,0,1,7.44-7.009,55.352,55.352,0,0,1,4.56-3.256,46.042,46.042,0,0,1,13.2-5.746c9.318-2.413,19.3-1.82,27.524,2.946C776.442,350.825,776.647,350.946,776.856,351.074Z" transform="translate(-552.405 -293.486)" fill="#f2f5f7"/>
  <path id="Path_13481" data-name="Path 13481" d="M777.168,359.281a57.323,57.323,0,0,0-33.93,9.625,24.686,24.686,0,0,0-5.77,5.15,14.156,14.156,0,0,0-2.807,6.9c-.329,2.335-.4,4.761-1.286,6.976a8.669,8.669,0,0,1-5.177,4.844,22.522,22.522,0,0,1-8.917.911c-3.328-.143-6.782-.343-9.909,1.016-.379.165-.612-.433-.234-.6,5.441-2.366,11.464-.174,17.1-1.42a8.779,8.779,0,0,0,6.308-4.46c1.057-2.188,1.128-4.69,1.441-7.057a15.109,15.109,0,0,1,2.493-6.852,22.822,22.822,0,0,1,5.551-5.353,55.613,55.613,0,0,1,15.6-7.662,58.343,58.343,0,0,1,19.637-2.657C777.679,358.662,777.577,359.3,777.168,359.281Z" transform="translate(-552.839 -301.418)" fill="#fff"/>
  <path id="Path_13482" data-name="Path 13482" d="M813.494,361.228a8.6,8.6,0,0,1,2.756-10.79c.338-.237.722.276.384.514a7.964,7.964,0,0,0-2.543,10.042C814.274,361.364,813.676,361.6,813.494,361.228Z" transform="translate(-619.997 -295.784)" fill="#fff"/>
  <path id="Path_13483" data-name="Path 13483" d="M781.155,417.855a16.577,16.577,0,0,0,12.074-.4c.379-.164.613.434.234.6a17.243,17.243,0,0,1-12.565.387C780.508,418.3,780.767,417.717,781.155,417.855Z" transform="translate(-599.222 -339.673)" fill="#fff"/>
  <path id="Path_13484" data-name="Path 13484" d="M863.8,362.613a4.869,4.869,0,0,0,3.125,3.4c.391.134.132.721-.257.588a5.455,5.455,0,0,1-3.466-3.755.331.331,0,0,1,.182-.416A.322.322,0,0,1,863.8,362.613Z" transform="translate(-652.746 -303.623)" fill="#fff"/>
  <path id="Path_13485" data-name="Path 13485" d="M289.55,630.617c-13.221-6.09-24.071-18.935-24.375-33.488a67.067,67.067,0,0,0,43.881,13.953c6.1-.282,12.852-1.23,17.748,2.417,3.046,2.269,4.746,5.99,5.356,9.739a44.529,44.529,0,0,1-.11,11.362l.355.879C317.934,637.062,302.771,636.707,289.55,630.617Z" transform="translate(-264.846 -458.279)" fill="#f2f5f7"/>
  <path id="Path_13486" data-name="Path 13486" d="M264.871,596.684A57.323,57.323,0,0,0,291.3,620.043a24.685,24.685,0,0,0,7.451,2.075,14.158,14.158,0,0,0,7.325-1.365c2.143-.984,4.221-2.239,6.565-2.685a8.669,8.669,0,0,1,6.873,1.742,22.526,22.526,0,0,1,5.582,7.012c1.677,2.878,3.374,5.894,6.207,7.791.343.23-.034.749-.376.52-4.929-3.3-6.337-9.554-10.429-13.623a8.779,8.779,0,0,0-7.161-2.9c-2.412.292-4.556,1.583-6.717,2.6a15.107,15.107,0,0,1-7.113,1.6,22.828,22.828,0,0,1-7.5-1.781,55.621,55.621,0,0,1-14.875-8.993,58.344,58.344,0,0,1-12.841-15.092c-.21-.355.379-.611.587-.259Z" transform="translate(-264.239 -457.883)" fill="#fff"/>
  <path id="Path_13487" data-name="Path 13487" d="M310.895,658.548a8.6,8.6,0,0,1-10.57,3.508c-.382-.156-.158-.757.225-.6a7.964,7.964,0,0,0,9.825-3.283C310.588,657.818,311.106,658.2,310.895,658.548Z" transform="translate(-287.486 -497.729)" fill="#fff"/>
  <path id="Path_13488" data-name="Path 13488" d="M367.249,647.791a16.577,16.577,0,0,0-6.854-9.948c-.342-.231.034-.75.376-.519a17.242,17.242,0,0,1,7.111,10.366c.093.4-.541.5-.633.1Z" transform="translate(-326.437 -484.278)" fill="#fff"/>
  <path id="Path_13489" data-name="Path 13489" d="M288.359,618.519a4.869,4.869,0,0,0,1.175-4.467c-.1-.4.536-.5.633-.1a5.455,5.455,0,0,1-1.289,4.945.332.332,0,0,1-.448.072.322.322,0,0,1-.072-.448Z" transform="translate(-279.824 -469.012)" fill="#fff"/>
  <path id="Path_13490" data-name="Path 13490" d="M359.844,505.725c.069.249.137.5.211.749a64.112,64.112,0,0,0,3.614,9.752c.11.245.224.492.341.733a67.585,67.585,0,0,0,14.7,20.078,65.6,65.6,0,0,0,7.775,6.246c3.793,2.6,8.112,5.114,10.747,8.708a11.276,11.276,0,0,1,.766,1.164L390.8,575.771c-.042.043-.079.088-.121.132l-.246.916c-.148-.087-.3-.181-.449-.268-.086-.05-.171-.105-.257-.156-.057-.035-.114-.07-.168-.1l-.052-.033c-.054-.029-.1-.06-.148-.087q-1.277-.781-2.548-1.583c-.005,0-.005,0-.009-.008a96.528,96.528,0,0,1-17.858-14.2c-.158-.164-.321-.33-.476-.5a62.64,62.64,0,0,1-6.427-7.948,55.388,55.388,0,0,1-2.9-4.792,46.046,46.046,0,0,1-4.732-13.6c-1.7-9.474-.357-19.386,5.016-27.223C359.565,506.119,359.7,505.924,359.844,505.725Z" transform="translate(-322.2 -399.072)" fill="#f2f5f7"/>
  <path id="Path_13491" data-name="Path 13491" d="M370.061,505.413a57.323,57.323,0,0,0,7.035,34.56,24.69,24.69,0,0,0,4.7,6.143,14.158,14.158,0,0,0,6.671,3.32c2.3.5,4.718.754,6.858,1.809a8.669,8.669,0,0,1,4.439,5.528,22.524,22.524,0,0,1,.235,8.96c-.394,3.308-.855,6.737.265,9.958.136.39-.478.578-.613.188-1.948-5.6.692-11.444-.124-17.156a8.779,8.779,0,0,0-3.971-6.627c-2.1-1.22-4.591-1.479-6.928-1.97a15.108,15.108,0,0,1-6.644-3,22.822,22.822,0,0,1-4.919-5.939,55.62,55.62,0,0,1-6.462-16.136,58.339,58.339,0,0,1-1.166-19.781C369.482,504.856,370.106,505.006,370.061,505.413Z" transform="translate(-332.242 -398.617)" fill="#fff"/>
  <path id="Path_13492" data-name="Path 13492" d="M366.384,587.509a8.6,8.6,0,0,1-10.551-3.563c-.211-.355.33-.7.541-.345A7.964,7.964,0,0,0,366.2,586.9C366.579,586.741,366.765,587.355,366.384,587.509Z" transform="translate(-323.538 -448.544)" fill="#fff"/>
  <path id="Path_13493" data-name="Path 13493" d="M420.664,607.882a16.576,16.576,0,0,0,.517-12.07c-.134-.391.479-.578.613-.188a17.242,17.242,0,0,1-.563,12.558C421.063,608.56,420.5,608.258,420.664,607.882Z" transform="translate(-365.671 -457.048)" fill="#fff"/>
  <path id="Path_13494" data-name="Path 13494" d="M371.078,538.326a4.869,4.869,0,0,0,3.628-2.859c.163-.38.729-.077.567.3a5.455,5.455,0,0,1-4.006,3.172.332.332,0,0,1-.4-.213A.322.322,0,0,1,371.078,538.326Z" transform="translate(-333.298 -416.955)" fill="#fff"/>
  <path id="Path_13495" data-name="Path 13495" d="M393.9,355.713c-11.682-11.5-16.617-23.5-13.894-33.784,3.494-13.2,19.017-22.324,42.588-25.037l.087.757c-23.243,2.675-38.529,11.6-41.939,24.475-2.65,10.009,2.213,21.745,13.692,33.046Z" transform="translate(-338.868 -261.036)" fill="#f2f5f7"/>
  <path id="Path_13496" data-name="Path 13496" d="M561,525.609a182.883,182.883,0,0,1-46.163-6.333c-19.462-5.152-37.306-12.929-51.6-22.49l.423-.633c14.229,9.515,31.995,17.256,51.376,22.387,17.515,4.637,35.161,6.785,51.024,6.218l.028.761Q563.576,525.609,561,525.609Z" transform="translate(-393.424 -391.698)" fill="#f2f5f7"/>
  <path id="Path_13497" data-name="Path 13497" d="M731.738,401.882l-.244-.722c13.04-4.409,21.2-11.511,23.587-20.54,3.039-11.478-3.562-24.8-18.587-37.5-15.1-12.772-36.878-23.369-61.319-29.839l.195-.737c24.548,6.5,46.43,17.151,61.616,29.994,15.262,12.908,21.95,26.5,18.832,38.28C753.359,390.1,745.032,397.387,731.738,401.882Z" transform="translate(-530.964 -271.8)" fill="#f2f5f7"/>
  <path id="Path_13498" data-name="Path 13498" d="M381.5,494.544c-28.65-12.706-50.727-29.192-62.164-46.419l.635-.422c11.358,17.108,33.319,33.5,61.838,46.144Z" transform="translate(-299.931 -360.174)" fill="#f2f5f7"/>
  <path id="Path_13499" data-name="Path 13499" d="M765.207,626.9q-4.433,0-9.017-.2l.033-.761c22.806.987,42.928-1.742,58.2-7.894l.285.707C801.386,624.115,784.411,626.9,765.207,626.9Z" transform="translate(-583.443 -471.826)" fill="#f2f5f7"/>
  <path id="Path_13500" data-name="Path 13500" d="M561.3,273.954c-4.735-1.542-9.606-2.977-14.477-4.267-28.029-7.42-55.582-10.055-79.681-7.617l-.077-.758c24.189-2.445,51.836.2,79.953,7.639,4.885,1.293,9.769,2.733,14.518,4.279Z" transform="translate(-395.895 -236.226)" fill="#dfe6ea"/>
  <path id="Path_13501" data-name="Path 13501" d="M343.069,358.958c-11.683-11.5-16.617-23.5-13.894-33.784,3.494-13.2,19.017-22.324,42.588-25.037l.087.757c-23.243,2.675-38.529,11.6-41.939,24.475-2.65,10.009,2.213,21.745,13.692,33.046Z" transform="translate(-305.828 -263.175)" fill="#f2f5f7"/>
  <path id="Path_13502" data-name="Path 13502" d="M510.172,528.853a182.881,182.881,0,0,1-46.163-6.333c-19.462-5.152-37.307-12.929-51.6-22.49l.423-.633c14.229,9.515,31.995,17.256,51.376,22.387,17.515,4.637,35.161,6.785,51.024,6.218l.028.761Q512.743,528.854,510.172,528.853Z" transform="translate(-360.425 -393.83)" fill="#f2f5f7"/>
  <path id="Path_13503" data-name="Path 13503" d="M680.906,405.127l-.244-.722c13.04-4.409,21.2-11.511,23.587-20.54,3.038-11.478-3.563-24.8-18.587-37.5-15.1-12.771-36.878-23.369-61.319-29.839l.2-.737c24.548,6.5,46.43,17.151,61.616,29.994,15.262,12.907,21.95,26.5,18.832,38.28C702.526,393.347,694.2,400.632,680.906,405.127Z" transform="translate(-498.037 -273.951)" fill="#f2f5f7"/>
  <path id="Path_13504" data-name="Path 13504" d="M330.67,497.789c-28.65-12.707-50.727-29.192-62.164-46.419l.635-.421c11.358,17.108,33.319,33.5,61.838,46.144Z" transform="translate(-267.003 -362.309)" fill="#f2f5f7"/>
  <path id="Path_13505" data-name="Path 13505" d="M714.374,630.14q-4.433,0-9.017-.2l.033-.761c22.806.987,42.929-1.742,58.2-7.894l.285.707C750.553,627.36,733.579,630.14,714.374,630.14Z" transform="translate(-550.516 -473.928)" fill="#f2f5f7"/>
  <path id="Path_13506" data-name="Path 13506" d="M510.471,277.2c-4.735-1.542-9.606-2.977-14.477-4.267-28.029-7.42-55.582-10.055-79.681-7.618l-.077-.758c24.189-2.445,51.836.2,79.953,7.639,4.885,1.293,9.769,2.733,14.518,4.279Z" transform="translate(-362.9 -238.328)" fill="#dfe6ea"/>
  <path id="Path_13507" data-name="Path 13507" d="M453.373,462.691a5.912,5.912,0,0,0-5.9,5.905,277.487,277.487,0,0,0-2.24,49.894c.045,1.064.095,2.037.152,2.976.084,1.551.19,3.188.316,4.866.072.99.149,1.984.232,2.974.14,1.612.294,3.251.457,4.87.1.989.209,1.983.323,2.972.219,1.944.467,3.936.758,6.092a5.92,5.92,0,0,0,5.907,5.931h99.051a5.912,5.912,0,0,0,5.905-5.905l0-.041c.441-2.01.852-4.059,1.221-6.089.2-1.07.368-2.042.521-2.972.278-1.692.525-3.33.734-4.867.143-1.032.272-2.032.385-2.973.184-1.539.351-3.13.51-4.864.087-.942.166-1.916.244-2.975h0a173.2,173.2,0,0,0-3.615-49.848l0-.041a5.912,5.912,0,0,0-5.905-5.905Z" transform="translate(-381.58 -371.197)" fill="#3a3855"/>
  <path id="Path_13508" data-name="Path 13508" d="M472.854,457.944c-21.462,0-44.2-1.95-73.968-5.852h0a6.264,6.264,0,0,1-6.219-5.589,5.737,5.737,0,0,1-.039-.7V427.9a.919.919,0,0,1,.005-.115,6.3,6.3,0,0,1,6.281-6.171c51.783-7.041,83.24-7.04,140.219,0h0a6.3,6.3,0,0,1,6.256,6.19.7.7,0,0,1,0,.094v17.905a5.768,5.768,0,0,1-.039.7,6.273,6.273,0,0,1-6.246,5.589C514.489,455.993,494.311,457.944,472.854,457.944Z" transform="translate(-347.693 -339.446)" fill="#7d7bfa"/>
  <path id="Path_13509" data-name="Path 13509" d="M594.724,459.773H581.7a6.259,6.259,0,0,1-6.252-6.251V406.213a6.259,6.259,0,0,1,6.251-6.251h13.022a6.259,6.259,0,0,1,6.251,6.251v47.309A6.259,6.259,0,0,1,594.724,459.773Z" transform="translate(-466.108 -328.984)" fill="#3a3855"/>
  <path id="Path_13510" data-name="Path 13510" d="M581.266,349.155a16.5,16.5,0,0,0-.5-2.625,17.03,17.03,0,0,0-.965-2.513,14.789,14.789,0,0,0-6.659-6.914,17.755,17.755,0,0,0-11.692-1.073,23.107,23.107,0,0,0-9.033,4.229,23.482,23.482,0,0,0-3.767,3.553,46.081,46.081,0,0,0-3.465,5.556,23.128,23.128,0,0,0-5.14-7.353,24.167,24.167,0,0,0-8.854-5.351,22.31,22.31,0,0,0-5.427-1.1,17.271,17.271,0,0,0-5.821.508,14.664,14.664,0,0,0-8.3,6.067,15.306,15.306,0,0,0-2.592,9.336,15.706,15.706,0,0,0,1.068,4.875,18.583,18.583,0,0,0,1.167,2.448,19.025,19.025,0,0,0,1.551,2.222,17.569,17.569,0,0,0,8.632,5.748,25.689,25.689,0,0,0,11.18.63,52.606,52.606,0,0,0,11.1-3.131c.48-.181.958-.367,1.438-.551a70.458,70.458,0,0,0,9.777,3.172,29.441,29.441,0,0,0,11.508.462,18.467,18.467,0,0,0,9.544-4.662,17.138,17.138,0,0,0,4.944-8.586A14.825,14.825,0,0,0,581.266,349.155Zm-49.609,14.56a25.66,25.66,0,0,1-6.224.036A19.329,19.329,0,0,1,521.1,362.6a13.609,13.609,0,0,1-7.293-7.241,14.563,14.563,0,0,1-.882-3.208,13.288,13.288,0,0,1,0-2.944,13.856,13.856,0,0,1,.828-3,14.163,14.163,0,0,1,1.554-2.66,13.364,13.364,0,0,1,2-2.013,12.2,12.2,0,0,1,2.245-1.316,13.718,13.718,0,0,1,2.936-.785,17.376,17.376,0,0,1,4.094.032,21.173,21.173,0,0,1,4.715,1.3,22.253,22.253,0,0,1,4.54,2.647,21.773,21.773,0,0,1,3.508,3.5,21.5,21.5,0,0,1,2.555,4.4,22.29,22.29,0,0,1,1.372,5.07l0,.025a23.1,23.1,0,0,0-.15,2.63c0,.339.016.677.032,1.015a2.028,2.028,0,0,0-.4.534,64.015,64.015,0,0,1-8.143,2.582Q533.154,363.5,531.657,363.715Zm45.8-11.564a14.561,14.561,0,0,1-.883,3.208,13.533,13.533,0,0,1-7.293,7.24,19.327,19.327,0,0,1-4.328,1.152,25.673,25.673,0,0,1-6.235-.038,51.679,51.679,0,0,1-10.689-2.98c-.143-.053-.284-.11-.427-.163a1.986,1.986,0,0,0-.38-.528,22.821,22.821,0,0,0-.114-3.677,22.3,22.3,0,0,1,1.37-5.06,21.506,21.506,0,0,1,2.555-4.4,21.8,21.8,0,0,1,3.509-3.5,22.257,22.257,0,0,1,4.54-2.647,21.174,21.174,0,0,1,4.715-1.3,17.374,17.374,0,0,1,4.094-.032,13.717,13.717,0,0,1,2.936.785,12.2,12.2,0,0,1,2.245,1.316,13.339,13.339,0,0,1,2,2.013,14.156,14.156,0,0,1,1.554,2.66,13.854,13.854,0,0,1,.827,3,13.3,13.3,0,0,1,0,2.944Z" transform="translate(-423.089 -286.194)" fill="#3a3855"/>
  <circle id="Ellipse_502" data-name="Ellipse 502" cx="2.286" cy="2.286" r="2.286" transform="translate(80.276 127.774)" fill="#7d7bfa"/>
  <circle id="Ellipse_503" data-name="Ellipse 503" cx="2.286" cy="2.286" r="2.286" transform="translate(96.619 122.187)" fill="#7d7bfa"/>
  <circle id="Ellipse_504" data-name="Ellipse 504" cx="2.286" cy="2.286" r="2.286" transform="translate(89.398 139.694)" fill="#7d7bfa"/>
  <circle id="Ellipse_505" data-name="Ellipse 505" cx="2.286" cy="2.286" r="2.286" transform="translate(157.052 127.774)" fill="#7d7bfa"/>
  <circle id="Ellipse_506" data-name="Ellipse 506" cx="2.286" cy="2.286" r="2.286" transform="translate(140.709 122.187)" fill="#7d7bfa"/>
  <circle id="Ellipse_507" data-name="Ellipse 507" cx="2.286" cy="2.286" r="2.286" transform="translate(147.93 139.694)" fill="#7d7bfa"/>
  <circle id="Ellipse_508" data-name="Ellipse 508" cx="2.286" cy="2.286" r="2.286" transform="translate(158.953 166.735)" fill="#7d7bfa"/>
  <circle id="Ellipse_509" data-name="Ellipse 509" cx="2.286" cy="2.286" r="2.286" transform="translate(164.654 150.354)" fill="#7d7bfa"/>
  <circle id="Ellipse_510" data-name="Ellipse 510" cx="2.286" cy="2.286" r="2.286" transform="translate(146.79 157.592)" fill="#7d7bfa"/>
  <circle id="Ellipse_511" data-name="Ellipse 511" cx="2.286" cy="2.286" r="2.286" transform="translate(93.579 166.735)" fill="#7d7bfa"/>
  <circle id="Ellipse_512" data-name="Ellipse 512" cx="2.286" cy="2.286" r="2.286" transform="translate(99.28 150.354)" fill="#7d7bfa"/>
  <circle id="Ellipse_513" data-name="Ellipse 513" cx="2.286" cy="2.286" r="2.286" transform="translate(81.416 157.592)" fill="#7d7bfa"/>
  <path id="Path_2961" data-name="Path 2961" d="M688.066,205.544a5.461,5.461,0,0,0,5.318-.625c1.933-1.442,2.658-3.958,3.265-6.292l1.793-6.9-3.028,1.839a21.266,21.266,0,0,0-5.978,4.695c-1.572,2.007-2.367,4.819-1.331,7.148" transform="translate(-538.855 -191.724)" fill="#f2f2f2"/>
  <path id="Path_2961-2" data-name="Path 2961" d="M439.693,373.057a5.461,5.461,0,0,0,.856-5.286c-.857-2.254-3.079-3.64-5.157-4.863l-6.148-3.615.939,3.416a21.264,21.264,0,0,0,2.878,7.035c1.5,2.062,3.987,3.6,6.51,3.238" transform="translate(-371.261 -301.654)" fill="#f2f2f2"/>
  <path id="Path_2961-3" data-name="Path 2961" d="M849.6,674.808a5.461,5.461,0,0,0,.856-5.286c-.857-2.254-3.079-3.64-5.157-4.863l-6.148-3.615.939,3.416a21.276,21.276,0,0,0,2.878,7.035c1.5,2.062,3.987,3.6,6.511,3.238" transform="translate(-637.18 -499.681)" fill="#f2f2f2"/>
  <circle id="Ellipse_514" data-name="Ellipse 514" cx="3.048" cy="3.048" r="3.048" transform="translate(93.577 37.254)" fill="#fb9387"/>
  <circle id="Ellipse_515" data-name="Ellipse 515" cx="3.048" cy="3.048" r="3.048" transform="translate(12.651 125.142)" fill="#fb9387"/>
  <circle id="Ellipse_516" data-name="Ellipse 516" cx="3.048" cy="3.048" r="3.048" transform="translate(221.643 100.936)" fill="#fb9387"/>
  <circle id="Ellipse_517" data-name="Ellipse 517" cx="3.048" cy="3.048" r="3.048" transform="translate(9.603 50.289)" fill="#dfe6ea"/>
  <circle id="Ellipse_518" data-name="Ellipse 518" cx="3.048" cy="3.048" r="3.048" transform="translate(197.643 135.197)" fill="#e6e6e6"/>
  <circle id="Ellipse_519" data-name="Ellipse 519" cx="3.048" cy="3.048" r="3.048" transform="translate(203.738 44.702)" fill="#e6e6e6"/>
  <path id="Path_13511" data-name="Path 13511" d="M462.183,465.9a.909.909,0,0,1-1.261.1,1.014,1.014,0,0,1,.006-1.47c1.09-1.308,2.892.073,3.135,1.372a3.269,3.269,0,0,1-1.538,3.255,3.519,3.519,0,0,1-3.928-.515,4.246,4.246,0,0,1,.854-6.854,5.941,5.941,0,0,1,5.137.235,42.8,42.8,0,0,1,4.881,3.052,27.22,27.22,0,0,0,11.756,4.014c.731.075.726-1.069,0-1.143a26.147,26.147,0,0,1-6.755-1.627,29.687,29.687,0,0,1-6.07-3.332c-1.909-1.308-3.9-2.579-6.265-2.8a5.435,5.435,0,0,0-5.01,2.18,5.55,5.55,0,0,0-.834,4.869,5.14,5.14,0,0,0,3.918,3.374,4.2,4.2,0,0,0,4.43-2.047,3.9,3.9,0,0,0-.472-4.77,3.032,3.032,0,0,0-2.948-.8,2.594,2.594,0,0,0-1.754,2.232,2.05,2.05,0,0,0,3.7,1.253c.394-.624-.594-1.2-.987-.577Z" transform="translate(-388.663 -367.777)" fill="#3a3855"/>
  <path id="Path_13512" data-name="Path 13512" d="M714.887,465.9a.909.909,0,0,0,1.261.1,1.014,1.014,0,0,0-.006-1.47c-1.09-1.308-2.892.073-3.135,1.372a3.269,3.269,0,0,0,1.538,3.255,3.518,3.518,0,0,0,3.927-.515,4.246,4.246,0,0,0-.854-6.854,5.941,5.941,0,0,0-5.137.235,42.783,42.783,0,0,0-4.882,3.052,27.217,27.217,0,0,1-11.756,4.014c-.731.075-.726-1.069,0-1.143a26.143,26.143,0,0,0,6.755-1.627,29.684,29.684,0,0,0,6.07-3.332c1.909-1.308,3.9-2.579,6.265-2.8a5.435,5.435,0,0,1,5.01,2.18,5.55,5.55,0,0,1,.834,4.869,5.14,5.14,0,0,1-3.918,3.374,4.2,4.2,0,0,1-4.43-2.047,3.9,3.9,0,0,1,.472-4.77,3.032,3.032,0,0,1,2.948-.8,2.594,2.594,0,0,1,1.754,2.232,2.05,2.05,0,0,1-3.7,1.253C713.506,465.849,714.495,465.275,714.887,465.9Z" transform="translate(-543.848 -367.777)" fill="#3a3855"/>
  <path id="Path_13513" data-name="Path 13513" d="M83.7,33.52l-1.51,1.894-5.339-3.158,1.509-1.894Z" transform="translate(-49.781 -19.667)" fill="#dfe6ea"/>
  <path id="Path_13514" data-name="Path 13514" d="M101.8,62.43l1.333,1.99L97.52,67.21,96.187,65.22Z" transform="translate(-62.306 -40.44)" fill="#dfe6ea"/>
  <path id="Path_13515" data-name="Path 13515" d="M128.1,37.872l2.664.094-.265,5.575-2.665-.094Z" transform="translate(-82.912 -24.532)" fill="#dfe6ea"/>
  <path id="Path_13516" data-name="Path 13516" d="M619.066,364.473l-1.51,1.894-5.339-3.158,1.51-1.894Z" transform="translate(-397.107 -236.887)" fill="#e4e4e4"/>
  <path id="Path_13517" data-name="Path 13517" d="M637.161,393.383l1.333,1.99-5.609,2.79-1.333-1.99Z" transform="translate(-409.631 -257.907)" fill="#e4e4e4"/>
  <path id="Path_13518" data-name="Path 13518" d="M663.469,368.825l2.665.095-.265,5.575L663.2,374.4Z" transform="translate(-430.134 -241.821)" fill="#e4e4e4"/>
</svg>
