<svg id="Google-Play" xmlns="http://www.w3.org/2000/svg" xmlns:xlink="http://www.w3.org/1999/xlink" width="295" height="87" viewBox="0 0 295 87">
  <defs>
    <linearGradient id="linear-gradient" x1="2.472" y1="1.035" x2="2.361" y2="1.005" gradientUnits="objectBoundingBox">
      <stop offset="0" stop-color="#00a0ff"/>
      <stop offset="0.007" stop-color="#00a1ff"/>
      <stop offset="0.26" stop-color="#00beff"/>
      <stop offset="0.512" stop-color="#00d2ff"/>
      <stop offset="0.76" stop-color="#00dfff"/>
      <stop offset="1" stop-color="#00e3ff"/>
    </linearGradient>
    <linearGradient id="linear-gradient-2" x1="1.95" y1="1.879" x2="1.69" y2="1.879" gradientUnits="objectBoundingBox">
      <stop offset="0" stop-color="#ffe000"/>
      <stop offset="0.409" stop-color="#ffbd00"/>
      <stop offset="0.775" stop-color="orange"/>
      <stop offset="1" stop-color="#ff9c00"/>
    </linearGradient>
    <linearGradient id="linear-gradient-3" x1="1.926" y1="0.946" x2="1.835" y2="0.793" gradientUnits="objectBoundingBox">
      <stop offset="0" stop-color="#ff3a44"/>
      <stop offset="1" stop-color="#c31162"/>
    </linearGradient>
    <linearGradient id="linear-gradient-4" x1="1.856" y1="2.093" x2="1.897" y2="2.025" gradientUnits="objectBoundingBox">
      <stop offset="0" stop-color="#32a071"/>
      <stop offset="0.068" stop-color="#2da771"/>
      <stop offset="0.476" stop-color="#15cf74"/>
      <stop offset="0.801" stop-color="#06e775"/>
      <stop offset="1" stop-color="#00f076"/>
    </linearGradient>
  </defs>
  <path id="Path_13430" data-name="Path 13430" d="M284.07,87H10.93A10.933,10.933,0,0,1,0,76.125V10.875A10.919,10.919,0,0,1,10.93,0H284.07A10.922,10.922,0,0,1,295,10.875v65.25A10.936,10.936,0,0,1,284.07,87Z" fill-rule="evenodd"/>
  <path id="Path_13431" data-name="Path 13431" d="M284.07,1.741a9.186,9.186,0,0,1,9.188,9.134v65.25a9.168,9.168,0,0,1-9.188,9.134H10.93a9.186,9.186,0,0,1-9.188-9.134V10.875A9.168,9.168,0,0,1,10.93,1.741Zm0-1.741H10.93A10.933,10.933,0,0,0,0,10.875v65.25A10.919,10.919,0,0,0,10.93,87H284.07A10.922,10.922,0,0,0,295,76.125V10.875A10.936,10.936,0,0,0,284.07,0Z" fill="#a6a6a6" fill-rule="evenodd"/>
  <path id="Path_13432" data-name="Path 13432" d="M1719.938,285.374a6.624,6.624,0,0,1-4.945-2.046,6.969,6.969,0,0,1-2-4.994,6.814,6.814,0,0,1,2-4.988,6.6,6.6,0,0,1,4.939-2.046,6.692,6.692,0,0,1,4.945,2.046,7.227,7.227,0,0,1,0,9.976A6.568,6.568,0,0,1,1719.938,285.374Zm-58.625,0a6.868,6.868,0,0,1-4.966-2.019,7.034,7.034,0,0,1,4.966-12.05,6.921,6.921,0,0,1,2.774.575,5.609,5.609,0,0,1,2.111,1.509l.13.157-1.471,1.444-.152-.179a4.181,4.181,0,0,0-3.414-1.471,4.719,4.719,0,0,0-3.4,1.389,5.276,5.276,0,0,0,0,7.23,4.975,4.975,0,0,0,6.9,0,3.758,3.758,0,0,0,1-2.263h-4.717v-2.03h6.741l.027.185a7.451,7.451,0,0,1,.1,1.02,6.111,6.111,0,0,1-1.683,4.505A6.567,6.567,0,0,1,1661.313,285.374Zm77.948-.288h-2.079l-6.367-10.188.054,1.835v8.348h-2.079V271.593h2.372l.065.1,5.987,9.6-.054-1.829v-7.87h2.1Zm-34.944,0h-2.106V273.623h-3.653v-2.03h9.406v2.03h-3.653v11.463Zm-7.474,0h-2.1V271.593h2.1Zm-11.806,0h-2.1V273.623h-3.653v-2.03h9.406v2.03h-3.653Zm-7.083-.022H1669.9V271.593h8.055v2.03h-5.949v3.7h5.368v2.008h-5.368v3.7h5.949Zm38.581-3.132a4.648,4.648,0,0,0,3.4,1.411,4.53,4.53,0,0,0,3.4-1.411,5.349,5.349,0,0,0,.005-7.186,4.656,4.656,0,0,0-3.4-1.411,4.51,4.51,0,0,0-3.4,1.411,5.356,5.356,0,0,0-.011,7.186Z" transform="translate(-1564.527 -256.587)" fill="#fff"/>
  <path id="Path_13433" data-name="Path 13433" d="M1705.613,693.28a9.26,9.26,0,1,0,9.287,9.26A9.115,9.115,0,0,0,1705.613,693.28Zm0,14.85a5.627,5.627,0,1,1,5.221-5.612A5.358,5.358,0,0,1,1705.613,708.131Zm-20.262-14.85a9.26,9.26,0,1,0,9.287,9.26A9.115,9.115,0,0,0,1685.351,693.28Zm0,14.85a5.627,5.627,0,1,1,5.221-5.612A5.358,5.358,0,0,1,1685.351,708.131Zm-24.11-12.023v3.919h9.406a8.26,8.26,0,0,1-2.128,4.934,9.6,9.6,0,0,1-7.257,2.877,10.449,10.449,0,0,1,0-20.9,10.041,10.041,0,0,1,7.083,2.806l2.779-2.779a13.665,13.665,0,0,0-9.84-3.968,14.369,14.369,0,1,0,0,28.735,13.152,13.152,0,0,0,10.036-4.038,13,13,0,0,0,3.409-9.189,12.114,12.114,0,0,0-.217-2.443h-13.276C1661.241,696.059,1661.241,696.108,1661.241,696.108Zm98.617,3.05c-.776-2.079-3.121-5.9-7.93-5.9-4.766,0-8.728,3.751-8.728,9.26a9.051,9.051,0,0,0,9.189,9.26,9.191,9.191,0,0,0,7.713-4.109l-3.143-2.106a5.266,5.266,0,0,1-4.549,2.562,4.729,4.729,0,0,1-4.5-2.806l12.381-5.129C1760.292,700.2,1759.858,699.158,1759.858,699.158Zm-12.625,3.094a5.082,5.082,0,0,1,4.836-5.4,3.57,3.57,0,0,1,3.436,1.959Zm-10.058,8.972h4.065v-27.2h-4.065Zm-6.676-15.887h-.146a6.413,6.413,0,0,0-4.885-2.079,9.26,9.26,0,0,0,0,18.5,6.4,6.4,0,0,0,4.885-2.106h.146v1.33c0,3.533-1.889,5.439-4.934,5.439a5.133,5.133,0,0,1-4.668-3.289l-3.534,1.476a8.839,8.839,0,0,0,8.2,5.466c4.766,0,8.8-2.806,8.8-9.651V693.812h-3.843v1.525Zm-4.668,12.793a5.63,5.63,0,0,1,0-11.219c2.779,0,4.934,2.394,4.934,5.634C1730.792,705.786,1728.616,708.131,1725.832,708.131Zm53.062-24.11h-9.721v27.2h4.065v-10.3h5.661c4.5,0,8.923-3.262,8.923-8.44S1783.415,684.02,1778.893,684.02Zm.119,13.1h-5.781v-9.336h5.781a4.669,4.669,0,1,1,0,9.336Zm25.1-3.892c-2.953,0-6,1.308-7.257,4.158l3.6,1.5a3.865,3.865,0,0,1,3.7-2.008c2.106,0,4.234,1.259,4.282,3.506v.288a9.106,9.106,0,0,0-4.234-1.042c-3.892,0-7.838,2.128-7.838,6.117,0,3.653,3.191,6,6.747,6a5.723,5.723,0,0,0,5.173-2.66h.146v2.106h3.919V700.771C1812.361,695.918,1808.757,693.231,1804.116,693.231Zm-.51,14.9c-1.33,0-3.191-.651-3.191-2.323,0-2.106,2.323-2.9,4.3-2.9a7.056,7.056,0,0,1,3.7.917A4.894,4.894,0,0,1,1803.606,708.131Zm23.052-14.318-4.668,11.8h-.147l-4.836-11.8h-4.375l7.257,16.495-4.136,9.167h4.234l11.165-25.662Zm-36.594,17.412h4.065v-27.2h-4.065Z" transform="translate(-1557.364 -645.99)" fill="#fff" fill-rule="evenodd"/>
  <path id="Path_13434" data-name="Path 13434" d="M401.093,299.546a4.4,4.4,0,0,0-.993,3.069v48.074a4.189,4.189,0,0,0,1.015,3.042l.168.146,26.965-26.935v-.6L401.262,299.4Z" transform="translate(-378.383 -283.149)" fill-rule="evenodd" fill="url(#linear-gradient)"/>
  <path id="Path_13435" data-name="Path 13435" d="M927.294,649.117l-8.994-8.994v-.63l8.994-8.994.2.119,10.638,6.047c3.045,1.715,3.045,4.548,0,6.285L927.489,649Z" transform="translate(-868.465 -596.309)" fill-rule="evenodd" fill="url(#linear-gradient-2)"/>
  <path id="Path_13436" data-name="Path 13436" d="M454.723,811.189,445.533,802,418.4,829.133c.993,1.064,2.66,1.183,4.521.146l31.8-18.091" transform="translate(-395.69 -758.515)" fill-rule="evenodd" fill="url(#linear-gradient-3)"/>
  <path id="Path_13437" data-name="Path 13437" d="M454.723,305.272l-31.8-18.064c-1.862-1.064-3.533-.917-4.521.147l27.133,27.106Z" transform="translate(-395.69 -270.947)" fill-rule="evenodd" fill="url(#linear-gradient-4)"/>
  <path id="Path_13438" data-name="Path 13438" d="M454.906,967.7l-31.584,17.944c-1.764,1.015-3.338.944-4.353.022l-.168.168.168.147c1.015.917,2.589.993,4.353-.022l31.8-18.064Z" transform="translate(-396.068 -915.223)" fill-rule="evenodd" opacity="0.2"/>
  <path id="Path_13439" data-name="Path 13439" d="M1094.361,804.828l-10.861,6.166.2.2,10.638-6.047a3.812,3.812,0,0,0,2.274-3.143A3.916,3.916,0,0,1,1094.361,804.828Z" transform="translate(-1024.699 -758.503)" fill-rule="evenodd" opacity="0.12"/>
  <path id="Path_13440" data-name="Path 13440" d="M405.615,287.358l42.44,24.11a4,4,0,0,1,2.274,2.828,3.812,3.812,0,0,0-2.274-3.143l-42.44-24.11c-3.045-1.742-5.515-.288-5.515,3.192v.315C400.1,287.065,402.57,285.638,405.615,287.358Z" transform="translate(-378.383 -270.782)" fill="#fff" fill-rule="evenodd" opacity="0.25"/>
</svg>
