<svg xmlns="http://www.w3.org/2000/svg" xmlns:xlink="http://www.w3.org/1999/xlink" width="1920" height="780" viewBox="0 0 1920 780">
  <defs>
    <clipPath id="clip-path">
      <rect id="Rectangle_3319" data-name="Rectangle 3319" width="1920" height="780" fill="#7d7bfa"/>
    </clipPath>
  </defs>
  <g id="Mask_Group_7" data-name="Mask Group 7" clip-path="url(#clip-path)">
    <g id="logo" transform="translate(-434.902 -420.128)" opacity="0.16">
      <path id="Path_156" data-name="Path 156" d="M1414.153,157.225c37.2,69.3,95.822,107.476,165.044,107.5a201.78,201.78,0,0,0,42.038-4.593c80.19-17.2,130.923-80.359,139.155-173.275,11.9-134.049-63.386-319.932-163.8-411.136C1658.85-398.632,1751.646-442.5,1848.566-442.5c104.422,0,198.118,42.4,250.708,113.41,60.7,82,69.2,202.64,24.55,348.9-95.458,312.629-386.395,461.284-490.009,505.323a64.3,64.3,0,0,1-40.183,3.4C1467.572,498.285,1011.1,367.386,975.243,50.974l-.316-2.491a312.661,312.661,0,0,1-4.3-49.219c0-173.205,140.889-314.117,314.093-314.117a311.979,311.979,0,0,1,135.2,31.069c-64,140.767-67.146,326.7-5.762,441.009M1631.345,75.4c-4.541,51.073-26.648,55.787-37.346,58.034a69.11,69.11,0,0,1-14.8,1.71c-8.159,0-29.849-.024-50.9-39.2-34.611-64.485-40.939-196.726.123-304.517,56.617,66.95,110.819,195.038,102.928,283.975m217.22-647.483c-140.962,0-274.692,65.78-361.331,176.819a442.385,442.385,0,0,0-202.516-49.144c-244.625,0-443.671,199.023-443.671,443.672a431.84,431.84,0,0,0,5.64,67.661c53.518,464.066,732.046,591.984,760.917,597.213h.024a64.8,64.8,0,0,0,31.728-2.2c19.224-6.326,472.667-159.845,608.354-604.3,72.177-236.368,15.753-382.705-44.309-463.823-76.894-103.883-209.551-165.9-354.836-165.9" transform="translate(-679.007 725.184)" fill="#6664cc"/>
      <path id="Path_157" data-name="Path 157" d="M1014.546-578.35A119.5,119.5,0,0,0,895.177-459,119.5,119.5,0,0,0,1014.546-339.66,119.5,119.5,0,0,0,1133.889-459,119.5,119.5,0,0,0,1014.546-578.35" transform="translate(589.014 578.35)" fill="#6664cc"/>
      <path id="Path_158" data-name="Path 158" d="M1073.078-452.618A119.469,119.469,0,0,0,953.733-571.962,119.463,119.463,0,0,0,834.414-452.618,119.463,119.463,0,0,0,953.733-333.272a119.468,119.468,0,0,0,119.345-119.346" transform="translate(-834.414 727.995)" fill="#6664cc"/>
    </g>
  </g>
</svg>
