<svg id="twitter" xmlns="http://www.w3.org/2000/svg" width="32" height="32" viewBox="0 0 32 32">
  <path id="Path_932" data-name="Path 932" d="M24.829,15.948A2.8,2.8,0,0,0,26.1,14.34a6.851,6.851,0,0,1-1.858.681,2.754,2.754,0,0,0-2.1-.9,2.865,2.865,0,0,0-2.089.852,2.817,2.817,0,0,0-.85,2.059,2.044,2.044,0,0,0,.092.647,7.829,7.829,0,0,1-6.028-3.033,2.922,2.922,0,0,0-.4,1.458,2.823,2.823,0,0,0,1.3,2.441,3.219,3.219,0,0,1-1.3-.372,2.9,2.9,0,0,0,.649,1.888,2.851,2.851,0,0,0,1.669,1.019,3.082,3.082,0,0,1-.773.094,1.468,1.468,0,0,1-.526-.066,2.812,2.812,0,0,0,1.02,1.454,2.881,2.881,0,0,0,1.7.587,5.682,5.682,0,0,1-3.618,1.234,4.664,4.664,0,0,1-.711-.03,8.06,8.06,0,0,0,4.482,1.3,7.952,7.952,0,0,0,4.484-1.285,8.034,8.034,0,0,0,2.875-3.141,8.521,8.521,0,0,0,.926-3.865v-.372a6.166,6.166,0,0,0,1.454-1.518,6.137,6.137,0,0,1-1.662.475ZM19,35A15.429,15.429,0,0,1,7.665,30.3,15.51,15.51,0,0,1,3,19,15.49,15.49,0,0,1,7.67,7.667,15.487,15.487,0,0,1,19,3,15.5,15.5,0,0,1,30.3,7.665,15.438,15.438,0,0,1,35,19a15.464,15.464,0,0,1-4.7,11.3A15.46,15.46,0,0,1,19,35ZM19,6.556a11.881,11.881,0,0,0-8.814,3.627A11.884,11.884,0,0,0,6.556,19a11.918,11.918,0,0,0,3.632,8.791A11.845,11.845,0,0,0,19,31.444a11.869,11.869,0,0,0,8.786-3.657A11.879,11.879,0,0,0,31.444,19a11.848,11.848,0,0,0-3.653-8.812A11.916,11.916,0,0,0,19,6.556Z" transform="translate(-3 -3)" fill="#4c4c72"/>
</svg>
